<svg width="26" height="26" viewBox="0 0 26 26" fill="none" xmlns="http://www.w3.org/2000/svg">
<g id="icons8-instagram (3)">
<path id="Vector" d="M9.72222 4C7.11461 4 5 6.11461 5 8.72222V16.2778C5 18.8854 7.11461 21 9.72222 21H17.2778C19.8854 21 22 18.8854 22 16.2778V8.72222C22 6.11461 19.8854 4 17.2778 4H9.72222ZM19.1667 5.88889C19.688 5.88889 20.1111 6.312 20.1111 6.83333C20.1111 7.35467 19.688 7.77778 19.1667 7.77778C18.6453 7.77778 18.2222 7.35467 18.2222 6.83333C18.2222 6.312 18.6453 5.88889 19.1667 5.88889ZM13.5 7.77778C16.1076 7.77778 18.2222 9.89239 18.2222 12.5C18.2222 15.1076 16.1076 17.2222 13.5 17.2222C10.8924 17.2222 8.77778 15.1076 8.77778 12.5C8.77778 9.89239 10.8924 7.77778 13.5 7.77778ZM13.5 9.66667C12.7486 9.66667 12.0279 9.96518 11.4965 10.4965C10.9652 11.0279 10.6667 11.7486 10.6667 12.5C10.6667 13.2514 10.9652 13.9721 11.4965 14.5035C12.0279 15.0348 12.7486 15.3333 13.5 15.3333C14.2514 15.3333 14.9721 15.0348 15.5035 14.5035C16.0348 13.9721 16.3333 13.2514 16.3333 12.5C16.3333 11.7486 16.0348 11.0279 15.5035 10.4965C14.9721 9.96518 14.2514 9.66667 13.5 9.66667Z" fill="white"/>
</g>
</svg>
